<?xml version="1.0" encoding="UTF-8" standalone="no"?>
<svg
   width="235.523"
   height="52.339"
   viewBox="0 0 235.523 52.339"
   version="1.1"
   id="svg78"
   sodipodi:docname="cclogo.svg"
   inkscape:version="1.2.2 (b0a8486541, 2022-12-01)"
   xmlns:inkscape="http://www.inkscape.org/namespaces/inkscape"
   xmlns:sodipodi="http://sodipodi.sourceforge.net/DTD/sodipodi-0.dtd"
   xmlns="http://www.w3.org/2000/svg"
   xmlns:svg="http://www.w3.org/2000/svg">
  <sodipodi:namedview
     id="namedview80"
     pagecolor="#ffffff"
     bordercolor="#000000"
     borderopacity="0.25"
     inkscape:showpageshadow="2"
     inkscape:pageopacity="0.0"
     inkscape:pagecheckerboard="0"
     inkscape:deskcolor="#d1d1d1"
     showgrid="false"
     inkscape:zoom="5.1375026"
     inkscape:cx="88.175138"
     inkscape:cy="11.873473"
     inkscape:window-width="1920"
     inkscape:window-height="1009"
     inkscape:window-x="1912"
     inkscape:window-y="-8"
     inkscape:window-maximized="1"
     inkscape:current-layer="svg78" />
  <defs
     id="defs44">
    <rect
       x="19.854005"
       y="12.652062"
       width="74.355193"
       height="21.41118"
       id="rect331" />
    <clipPath
       id="clip-path">
      <rect
         id="Rectangle_1"
         data-name="Rectangle 1"
         width="235.523"
         height="52.339"
         transform="translate(0 0)"
         fill="none" />
    </clipPath>
  </defs>
  <g
     id="CMIT_Logo_-_Vector"
     data-name="CMIT Logo - Vector"
     transform="translate(6.8126486)">
    <g
       id="Group_2"
       data-name="Group 2">
      <g
         id="Group_1"
         data-name="Group 1"
         clip-path="url(#clip-path)">
        <path
           id="Path_14"
           data-name="Path 14"
           d="M 94,25.714 A 3.7,3.7 0 1 0 98.006,22.292 3.746,3.746 0 0 0 94,25.714"
           fill="#e82727"
           fill-rule="evenodd" />
        <path
           id="Path_15"
           data-name="Path 15"
           d="m 99.265,17.1 a 2.968,2.968 0 1 0 3.261,-2.688 3.007,3.007 0 0 0 -3.261,2.688"
           fill="#e82727" />
        <path
           id="Path_16"
           data-name="Path 16"
           d="M 104.181,9.94 A 2.565,2.565 0 1 0 107,7.617 2.6,2.6 0 0 0 104.182,9.94"
           fill="#e82727" />
        <path
           id="Path_17"
           data-name="Path 17"
           d="m 110.254,5.07 a 2.267,2.267 0 1 0 2.492,-2.054 2.3,2.3 0 0 0 -2.492,2.054"
           fill="#e82727" />
        <path
           id="Path_18"
           data-name="Path 18"
           d="m 116.975,2.2 a 2.03,2.03 0 1 0 2.23,-1.837 2.039,2.039 0 0 0 -2.23,1.837"
           fill="#e82727" />
        <path
           id="Path_19"
           data-name="Path 19"
           d="m 123.708,1.55 a 1.7001621,1.7001621 0 1 0 3.381,0.362 1.7001621,1.7001621 0 1 0 -3.381,-0.362"
           fill="#e82727" />
        <path
           id="Path_20"
           data-name="Path 20"
           d="M 129.814,2.3 A 1.512,1.512 0 1 0 131.475,0.931 1.518,1.518 0 0 0 129.814,2.3"
           fill="#e82727" />
        <path
           id="Path_21"
           data-name="Path 21"
           d="M 134.964,4.909 A 1.228,1.228 0 1 0 136.313,3.8 1.244,1.244 0 0 0 134.964,4.913"
           fill="#e82727" />
        <path
           id="Path_22"
           data-name="Path 22"
           d="m 96.617,35.243 a 2.968,2.968 0 1 0 -3.261,2.689 3.008,3.008 0 0 0 3.261,-2.689"
           fill="#e82727" />
        <path
           id="Path_23"
           data-name="Path 23"
           d="M 91.7,42.4 A 2.565,2.565 0 1 0 88.882,44.723 2.6,2.6 0 0 0 91.7,42.4"
           fill="#e82727" />
        <path
           id="Path_24"
           data-name="Path 24"
           d="m 85.627,47.269 a 2.267,2.267 0 1 0 -2.491,2.054 2.3,2.3 0 0 0 2.491,-2.054"
           fill="#e82727" />
        <path
           id="Path_25"
           data-name="Path 25"
           d="m 78.907,50.137 a 2.03,2.03 0 1 0 -2.231,1.838 2.058,2.058 0 0 0 2.231,-1.838"
           fill="#e82727" />
        <path
           id="Path_26"
           data-name="Path 26"
           d="m 72.174,50.789 a 1.7,1.7 0 1 0 -1.868,1.54 1.724,1.724 0 0 0 1.868,-1.54"
           fill="#e82727" />
        <path
           id="Path_27"
           data-name="Path 27"
           d="m 66.067,50.038 a 1.512,1.512 0 1 0 -1.661,1.369 1.532,1.532 0 0 0 1.661,-1.369"
           fill="#e82727" />
        <path
           id="Path_28"
           data-name="Path 28"
           d="m 60.917,47.429 a 1.228,1.228 0 1 0 -1.349,1.112 1.245,1.245 0 0 0 1.349,-1.112"
           fill="#e82727" />
        <path
           id="Path_29"
           data-name="Path 29"
           d="m 230.09,16.624 a 2.887,2.887 0 0 0 -0.847,2.093 2.919,2.919 0 0 0 0.842,2.107 2.862,2.862 0 0 0 4.112,0 3.03,3.03 0 0 0 0,-4.2 2.857,2.857 0 0 0 -4.108,0 m 4.443,4.533 a 3.33,3.33 0 0 1 -4.779,0 3.372,3.372 0 0 1 -0.979,-2.44 3.335,3.335 0 0 1 0.989,-2.426 3.34,3.34 0 0 1 4.77,0 3.486,3.486 0 0 1 0,4.866 m -1.758,-3.742 a 1.647,1.647 0 0 0 -0.786,-0.141 h -0.556 v 1.367 h 0.589 a 1.729,1.729 0 0 0 0.62,-0.084 0.684,0.684 0 0 0 0.134,-1.142 m -0.7,-0.595 a 2.783,2.783 0 0 1 1.012,0.136 0.938,0.938 0 0 1 0.576,0.955 0.826,0.826 0 0 1 -0.364,0.745 1.39,1.39 0 0 1 -0.537,0.183 0.9,0.9 0 0 1 0.639,0.37 1.048,1.048 0 0 1 0.2,0.586 v 0.276 c 0,0.088 0,0.181 0.009,0.281 a 0.607,0.607 0 0 0 0.033,0.2 l 0.022,0.047 h -0.612 c 0,-0.012 -0.006,-0.025 -0.009,-0.037 -0.003,-0.012 -0.007,-0.027 -0.01,-0.042 l -0.014,-0.122 v -0.3 a 0.934,0.934 0 0 0 -0.349,-0.866 1.548,1.548 0 0 0 -0.726,-0.121 H 231.43 V 20.6 h -0.653 v -3.779 z"
           fill="#ffffff"
           fill-rule="evenodd" />
      </g>
    </g>
  </g>
  <text
     xml:space="preserve"
     id="text329"
     style="font-style:italic;font-variant:normal;font-weight:normal;font-stretch:normal;font-size:17.6446px;font-family:Verdana;-inkscape-font-specification:'Verdana, Italic';font-variant-ligatures:normal;font-variant-caps:normal;font-variant-numeric:normal;font-variant-east-asian:normal;white-space:pre;shape-inside:url(#rect331);display:inline;fill:#ffffff"
     transform="matrix(2.1100445,0,0,3.5634874,-40.998455,-63.060088)"><tspan
       x="19.853516"
       y="28.750047"
       id="tspan427"><tspan
         style="font-size:9.5514px"
         id="tspan425">Customer</tspan></tspan></text>
  <text
     xml:space="preserve"
     style="font-style:normal;font-variant:normal;font-weight:normal;font-stretch:normal;font-size:12px;font-family:Verdana;-inkscape-font-specification:'Verdana, Normal';font-variant-ligatures:normal;font-variant-caps:normal;font-variant-numeric:normal;font-variant-east-asian:normal;fill:#000000"
     x="67.3479"
     y="20.243299"
     id="text387"><tspan
       sodipodi:role="line"
       id="tspan385"
       x="67.3479"
       y="20.243299" /></text>
  <text
     xml:space="preserve"
     style="font-style:italic;font-variant:normal;font-weight:normal;font-stretch:normal;font-size:30.9201px;font-family:Verdana;-inkscape-font-specification:'Verdana, Italic';font-variant-ligatures:normal;font-variant-caps:normal;font-variant-numeric:normal;font-variant-east-asian:normal;fill:#ffffff;stroke-width:1.65643"
     x="121.32221"
     y="36.359596"
     id="text391"
     transform="scale(0.92006867,1.0868754)"><tspan
       sodipodi:role="line"
       id="tspan389"
       x="121.32221"
       y="36.359596"
       style="fill:#ffffff;stroke-width:1.65643;-inkscape-font-specification:'Verdana, Italic';font-family:Verdana;font-weight:normal;font-style:italic;font-stretch:normal;font-variant:normal;font-size:30.92009926px;font-variant-ligatures:normal;font-variant-caps:normal;font-variant-numeric:normal;font-variant-east-asian:normal">Connect</tspan></text>
</svg>
